<?xml version="1.0" encoding="utf-8"?>
<svg xmlns="http://www.w3.org/2000/svg" viewBox="0 0 500 500" xmlns:bx="https://boxy-svg.com">
  <g clip-path="url(#abf0630374)" transform="matrix(1.347549, 0, 0, 1.347549, -2.66543, -2.568049)" style="">
    <g clip-path="url(#068abe8f2a)">
      <path fill="#000000" d="M 16.75 0 L 358.25 0 L 358.25 374.851562 L 16.75 374.851562 Z M 16.75 0 " fill-opacity="1" fill-rule="nonzero"/>
    </g>
  </g>
  <g clip-path="url(#2f2e47e089)" transform="matrix(1.347549, 0, 0, 1.347549, -2.66543, -2.568049)" style="">
    <g clip-path="url(#b5fa1713a0)">
      <path fill="#000000" d="M 24.296875 8.289062 L 350.703125 8.289062 L 350.703125 366.570312 L 24.296875 366.570312 Z M 24.296875 8.289062 " fill-opacity="1" fill-rule="nonzero"/>
    </g>
  </g>
  <g clip-path="url(#7909c6a6a1)" transform="matrix(1.347549, 0, 0, 1.347549, -2.66543, -2.568049)" style="">
    <g clip-path="url(#29fcce9121)">
      <path stroke-linecap="butt" transform="matrix(0.75, 0, 0, 0.75, 24.297824, 8.290192)" fill="none" stroke-linejoin="miter" d="M 234.889375 10.055786 L 417.915429 116.545377 C 428.618555 122.774544 435.201888 134.222461 435.201888 146.60267 L 435.201888 331.284974 C 435.201888 343.670392 428.618555 355.118309 417.915429 361.342268 L 234.889375 467.831858 C 224.201874 474.050608 210.998749 474.050608 200.316456 467.831858 L 17.285194 361.342268 C 6.582069 355.118309 -0.00126526 343.670392 -0.00126526 331.284974 L -0.00126526 146.60267 C -0.00126526 134.222461 6.582069 122.774544 17.285194 116.545377 L 200.316456 10.055786 C 210.998749 3.842244 224.201874 3.842244 234.889375 10.055786 Z M 234.889375 10.055786 " stroke="#ff914d" stroke-width="20" stroke-opacity="1" stroke-miterlimit="4"/>
    </g>
  </g>
  <text style="fill: rgb(255, 255, 255); font-family: Anta; font-size: 80px; text-anchor: middle; white-space: pre;" x="250" y="330">Trailhead</text>
  <text style="fill: rgb(255, 255, 255); font-family: Anta; font-size: 80px; text-anchor: middle; white-space: pre;" x="250" y="400">Banner</text>
  <defs>
    <style bx:fonts="Anta">@import url(https://fonts.googleapis.com/css2?family=Anta%3Aital%2Cwght%400%2C400&amp;display=swap);</style>
    <g/>
    <clipPath id="abf0630374">
      <path d="M 16.75 4.003906 L 358.25 4.003906 L 358.25 370.851562 L 16.75 370.851562 Z M 16.75 4.003906 " clip-rule="nonzero"/>
    </clipPath>
    <clipPath id="068abe8f2a">
      <path d="M 201.761719 8.296875 L 343.988281 91.046875 C 352.820312 96.1875 358.25 105.632812 358.25 115.847656 L 358.25 259.152344 C 358.25 269.367188 352.820312 278.8125 343.988281 283.953125 L 201.761719 366.703125 C 192.945312 371.832031 182.054688 371.832031 173.238281 366.703125 L 31.011719 283.953125 C 22.179688 278.8125 16.75 269.367188 16.75 259.152344 L 16.75 115.847656 C 16.75 105.632812 22.179688 96.1875 31.011719 91.046875 L 173.238281 8.296875 C 182.054688 3.167969 192.945312 3.167969 201.761719 8.296875 Z M 201.761719 8.296875 " clip-rule="nonzero"/>
    </clipPath>
    <clipPath id="2f2e47e089">
      <path d="M 24.296875 12.113281 L 350.703125 12.113281 L 350.703125 362.746094 L 24.296875 362.746094 Z M 24.296875 12.113281 " clip-rule="nonzero"/>
    </clipPath>
    <clipPath id="b5fa1713a0">
      <path d="M 200.464844 15.832031 L 337.738281 95.699219 C 345.765625 100.371094 350.703125 108.957031 350.703125 118.242188 L 350.703125 256.757812 C 350.703125 266.042969 345.765625 274.628906 337.738281 279.300781 L 200.464844 359.167969 C 192.449219 363.828125 182.550781 363.828125 174.535156 359.167969 L 37.261719 279.300781 C 29.234375 274.628906 24.296875 266.042969 24.296875 256.757812 L 24.296875 118.242188 C 24.296875 108.957031 29.234375 100.371094 37.261719 95.699219 L 174.535156 15.832031 C 182.550781 11.171875 192.449219 11.171875 200.464844 15.832031 Z M 200.464844 15.832031 " clip-rule="nonzero"/>
    </clipPath>
    <clipPath id="7909c6a6a1">
      <path d="M 24.296875 12 L 350.546875 12 L 350.546875 363 L 24.296875 363 Z M 24.296875 12 " clip-rule="nonzero"/>
    </clipPath>
    <clipPath id="29fcce9121">
      <path d="M 200.464844 15.832031 L 337.734375 95.699219 C 345.761719 100.371094 350.699219 108.957031 350.699219 118.242188 L 350.699219 256.753906 C 350.699219 266.042969 345.761719 274.628906 337.734375 279.296875 L 200.464844 359.164062 C 192.449219 363.828125 182.546875 363.828125 174.535156 359.164062 L 37.261719 279.296875 C 29.234375 274.628906 24.296875 266.042969 24.296875 256.753906 L 24.296875 118.242188 C 24.296875 108.957031 29.234375 100.371094 37.261719 95.699219 L 174.535156 15.832031 C 182.546875 11.171875 192.449219 11.171875 200.464844 15.832031 Z M 200.464844 15.832031 " clip-rule="nonzero"/>
    </clipPath>
  </defs>
  <g transform="matrix(7.16165, 0, 0, 7.16165, 20.760141, -58.445969)" style="">
    <path d="M62.123,42.763,49.471,28.392h0l-.015-.017a3.8,3.8,0,0,1-.137-.109l-.009,0a.477.477,0,0,0-.133-.041.425.425,0,0,0-.051-.014.494.494,0,0,0-.3.075.442.442,0,0,0-.061.032h0L44.441,31.8,34.725,20.58c-.011-.012-.026-.015-.037-.026a.471.471,0,0,0-.129-.091.493.493,0,0,0-.064-.024.618.618,0,0,0-.072-.026.6.6,0,0,0-.073,0c-.018,0-.033-.009-.051-.008s-.024.011-.037.013a.531.531,0,0,0-.116.04.5.5,0,0,0-.084.04.493.493,0,0,0-.142.149l-.007.007L28.784,29.58H25.806a.5.5,0,0,0-.348.14l-4.5,4.339-5.071-2.59c-.009-.005-.018,0-.027-.005a.485.485,0,0,0-.252-.046c-.007,0-.014,0-.022.006a.466.466,0,0,0-.156.046.434.434,0,0,0-.058.046c-.01.007-.023.006-.033.014L1.931,42.709a.5.5,0,0,0,.641.768L15.5,32.7l2.34,4.532-.5,5.069a.5.5,0,0,0,.5.549.5.5,0,0,0,.372-.165l7.89-8.755,2.876,5.443a.539.539,0,0,0,.458.267.5.5,0,0,0,.44-.3l3.21-7.137a.479.479,0,0,0,.038-.129L34.675,22.05l8.984,10.37-5.667,4.491a.5.5,0,0,0,.311.892.491.491,0,0,0,.31-.109l6.076-4.815h0l2.764-2.224-3.215,5.933-9.208,4.8a.5.5,0,0,0,.232.943.493.493,0,0,0,.231-.057L44.84,37.4a.5.5,0,0,0,.208-.2l4.13-7.624,12.2,13.85a.5.5,0,1,0,.75-.66ZM32.144,31.856,29.381,38l-2.732-5.171a.5.5,0,0,0-.814-.1l-7.35,8.156.366-3.7A.509.509,0,0,0,18.8,36.9l-1.98-3.834,4,2.044a.5.5,0,0,0,.575-.085l4.612-4.446h3.066a.5.5,0,0,0,.434-.251l3.934-6.843Z" style="stroke-width: 0.837796px; fill: rgb(255, 145, 77);"/>
  </g>
  <g/>
</svg>